. 
 
http://www.torrenting.com          :     Once & For all ;)


               www . Torrenting . Com 

(((((((((((((= Enjoy No RAR releases =))))))))))))))))))))


...................................NFO:....................................

.[IMG]http://img3.imageshack.us/img3/703/killerib.jpg[/IMG]


[color=blue][size=5][b]Killer.Elite.2011.BDRip.XVID.AC3.HQ.Hive-CM8[/b][/size][/color]


[b]Thx Hive

CM8 Doing It Right The First Time :D


Source: Bluray

Video: 720x304 @bitrate 1700 2pass
Audio: English DTS to AC3 5.1 @448
Sample: Yes, included
Subs: Yes, English in srt /subs[/b]
 
http://www.imdb.com/title/tt1448755/


General
Complete name                  : Killer.Elite.2011.BDRip.XVID.AC3.HQ.Hive-CM8.avi
Format                         : AVI
Format/Info                    : Audio Video Interleave
File size                      : 1.76 GiB
Duration                       : 1h 56mn
Overall bit rate               : 2 158 Kbps
Writing application            : Nandub v1.0rc2
Writing library                : Nandub build 1853/release

Video
ID                             : 0
Format                         : MPEG-4 Visual
Format profile                 : Advanced Simple@L5
Format settings, BVOP          : 1
Format settings, QPel          : Yes
Format settings, GMC           : No warppoints
Format settings, Matrix        : Default (H.263)
Muxing mode                    : Packed bitstream
Codec ID                       : XVID
Codec ID/Hint                  : XviD
Duration                       : 1h 56mn
Bit rate                       : 1 701 Kbps
Width                          : 720 pixels
Height                         : 304 pixels
Display aspect ratio           : 2.40:1
Frame rate                     : 23.976 fps
Color space                    : YUV
Chroma subsampling             : 4:2:0
Bit depth                      : 8 bits
Scan type                      : Progressive
Compression mode               : Lossy
Bits/(Pixel*Frame)             : 0.324
Stream size                    : 1.39 GiB (79%)
Writing library                : XviD 1.2.1 (UTC 2008-12-04)

Audio
ID                             : 1
Format                         : AC-3
Format/Info                    : Audio Coding 3
Mode extension                 : CM (complete main)
Codec ID                       : 2000
Duration                       : 1h 56mn
Bit rate mode                  : Constant
Bit rate                       : 448 Kbps
Channel(s)                     : 6 channels
Channel positions              : Front: L C R, Side: L R, LFE
Sampling rate                  : 48.0 KHz
Bit depth                      : 16 bits
Compression mode               : Lossy
Stream size                    : 374 MiB (21%)
Alignment                      : Split accross interleaves
Interleave, duration           : 42 ms (1.00 video frame)
Interleave, preload duration   : 500 ms


Plot:
When his mentor is taken captive, a retired member of Britain's SAS is
forced into action. His mission: kill three assassins dispatched by
their cunning leader.


Cast:
Jason Statham     ...    Danny
Clive Owen        ...    Spike
Robert De Niro    ...    Hunter
Dominic Purcell   ...    Davies


[img]http://img688.imageshack.us/img688/6642/67606378.png[/img]
[img]http://img825.imageshack.us/img825/5248/kikio.png[/img]
[img]http://img37.imageshack.us/img37/9106/kikiki.png[/img]
[img]http://img831.imageshack.us/img831/9441/kikkiiki.png[/img]
[img]http://img820.imageshack.us/img820/4393/kikkikiiki.png[/img]
[img]http://img692.imageshack.us/img692/9311/kikkikkiiiki.png[/img]
[img]http://img827.imageshack.us/img827/5966/kikkikkikiiiki.png[/img]



Greetz

ViSiON,SPK,SANTi,3LT0N,FUSiON,YanKeeS,MAGNET,Feel-Free,THC,LKRG,BHRG
FANTASIA-PLAY,FANTASIA-M,FLAWL3SS,WBZ,ZMG,NOVA,D2U,Vik,Rapeseed
T0XiC,SAFC,goldadvance,MEMORY100,KaN1vE,Unevano,Pinnz,Wayne
Mr Hive,and most P2P groups
Great Work Guys :D

LOOKING FOR ANYTHING YOU WANT TO LOOK AND SOUND BETTER

CM8@hushmail.com